<?xml version="1.0" encoding="UTF-8" standalone="no"?>
<!DOCTYPE svg PUBLIC "-//W3C//DTD SVG 1.1//EN"
 "http://www.w3.org/Graphics/SVG/1.1/DTD/svg11.dtd">
<!-- Generated by graphviz version 2.38.0 (20140413.2041)
 -->
<!-- Title: %3 Pages: 1 -->
<svg width="240pt" height="263pt"
 viewBox="0.00 0.00 240.00 263.00" xmlns="http://www.w3.org/2000/svg" xmlns:xlink="http://www.w3.org/1999/xlink">
<g id="graph0" class="graph" transform="scale(1 1) rotate(0) translate(4 259)">
<title>%3</title>
<polygon fill="white" stroke="none" points="-4,4 -4,-259 236,-259 236,4 -4,4"/>
<g id="clust1" class="cluster"><title>cluster_RandomUnderSampler</title>
<polygon fill="none" stroke="black" points="8,-64 8,-139 224,-139 224,-64 8,-64"/>
<text text-anchor="middle" x="116" y="-123.8" font-family="Times,serif" font-size="14.00">RandomUnderSampler</text>
</g>
<!-- x -->
<g id="node1" class="node"><title>x</title>
<ellipse fill="none" stroke="black" cx="116" cy="-237" rx="27" ry="18"/>
<text text-anchor="middle" x="116" y="-233.3" font-family="Times,serif" font-size="14.00">x</text>
</g>
<!-- StandardScaler -->
<g id="node2" class="node"><title>StandardScaler</title>
<ellipse fill="none" stroke="black" cx="116" cy="-165" rx="82.5854" ry="18"/>
<text text-anchor="middle" x="116" y="-161.3" font-family="Times,serif" font-size="14.00">StandardScaler</text>
</g>
<!-- x&#45;&gt;StandardScaler -->
<g id="edge1" class="edge"><title>x&#45;&gt;StandardScaler</title>
<path fill="none" stroke="black" d="M116,-218.697C116,-210.983 116,-201.712 116,-193.112"/>
<polygon fill="black" stroke="black" points="119.5,-193.104 116,-183.104 112.5,-193.104 119.5,-193.104"/>
</g>
<!-- LogisticRegression -->
<g id="node3" class="node"><title>LogisticRegression</title>
<ellipse fill="none" stroke="black" cx="116" cy="-90" rx="100.182" ry="18"/>
<text text-anchor="middle" x="116" y="-86.3" font-family="Times,serif" font-size="14.00">LogisticRegression</text>
</g>
<!-- StandardScaler&#45;&gt;LogisticRegression -->
<g id="edge3" class="edge"><title>StandardScaler&#45;&gt;LogisticRegression</title>
<path fill="none" stroke="black" d="M116,-146.7C116,-138.245 116,-127.869 116,-118.373"/>
<polygon fill="black" stroke="black" points="119.5,-118.176 116,-108.176 112.5,-118.176 119.5,-118.176"/>
</g>
<!-- y -->
<g id="node4" class="node"><title>y</title>
<ellipse fill="none" stroke="black" cx="116" cy="-18" rx="27" ry="18"/>
<text text-anchor="middle" x="116" y="-14.3" font-family="Times,serif" font-size="14.00">y</text>
</g>
<!-- LogisticRegression&#45;&gt;y -->
<g id="edge2" class="edge"><title>LogisticRegression&#45;&gt;y</title>
<path fill="none" stroke="black" d="M116,-71.6966C116,-63.9827 116,-54.7125 116,-46.1124"/>
<polygon fill="black" stroke="black" points="119.5,-46.1043 116,-36.1043 112.5,-46.1044 119.5,-46.1043"/>
</g>
</g>
</svg>
