<?xml version="1.0" encoding="UTF-8" standalone="no"?>
<!DOCTYPE svg PUBLIC "-//W3C//DTD SVG 1.1//EN"
 "http://www.w3.org/Graphics/SVG/1.1/DTD/svg11.dtd">
<!-- Generated by graphviz version 2.38.0 (20140413.2041)
 -->
<!-- Title: %3 Pages: 1 -->
<svg width="208pt" height="260pt"
 viewBox="0.00 0.00 208.18 260.00" xmlns="http://www.w3.org/2000/svg" xmlns:xlink="http://www.w3.org/1999/xlink">
<g id="graph0" class="graph" transform="scale(1 1) rotate(0) translate(4 256)">
<title>%3</title>
<polygon fill="white" stroke="none" points="-4,4 -4,-256 204.182,-256 204.182,4 -4,4"/>
<!-- x -->
<g id="node1" class="node"><title>x</title>
<ellipse fill="none" stroke="black" cx="100.091" cy="-234" rx="27" ry="18"/>
<text text-anchor="middle" x="100.091" y="-230.3" font-family="Times,serif" font-size="14.00">x</text>
</g>
<!-- StandardScaler -->
<g id="node2" class="node"><title>StandardScaler</title>
<ellipse fill="none" stroke="black" cx="100.091" cy="-162" rx="82.5854" ry="18"/>
<text text-anchor="middle" x="100.091" y="-158.3" font-family="Times,serif" font-size="14.00">StandardScaler</text>
</g>
<!-- x&#45;&gt;StandardScaler -->
<g id="edge1" class="edge"><title>x&#45;&gt;StandardScaler</title>
<path fill="none" stroke="black" d="M100.091,-215.697C100.091,-207.983 100.091,-198.712 100.091,-190.112"/>
<polygon fill="black" stroke="black" points="103.591,-190.104 100.091,-180.104 96.5912,-190.104 103.591,-190.104"/>
</g>
<!-- LogisticRegression -->
<g id="node3" class="node"><title>LogisticRegression</title>
<ellipse fill="none" stroke="black" cx="100.091" cy="-90" rx="100.182" ry="18"/>
<text text-anchor="middle" x="100.091" y="-86.3" font-family="Times,serif" font-size="14.00">LogisticRegression</text>
</g>
<!-- StandardScaler&#45;&gt;LogisticRegression -->
<g id="edge3" class="edge"><title>StandardScaler&#45;&gt;LogisticRegression</title>
<path fill="none" stroke="black" d="M100.091,-143.697C100.091,-135.983 100.091,-126.712 100.091,-118.112"/>
<polygon fill="black" stroke="black" points="103.591,-118.104 100.091,-108.104 96.5912,-118.104 103.591,-118.104"/>
</g>
<!-- y -->
<g id="node4" class="node"><title>y</title>
<ellipse fill="none" stroke="black" cx="100.091" cy="-18" rx="27" ry="18"/>
<text text-anchor="middle" x="100.091" y="-14.3" font-family="Times,serif" font-size="14.00">y</text>
</g>
<!-- LogisticRegression&#45;&gt;y -->
<g id="edge2" class="edge"><title>LogisticRegression&#45;&gt;y</title>
<path fill="none" stroke="black" d="M100.091,-71.6966C100.091,-63.9827 100.091,-54.7125 100.091,-46.1124"/>
<polygon fill="black" stroke="black" points="103.591,-46.1043 100.091,-36.1043 96.5912,-46.1044 103.591,-46.1043"/>
</g>
</g>
</svg>
