<?xml version="1.0" encoding="UTF-8" standalone="no"?>
<!DOCTYPE svg PUBLIC "-//W3C//DTD SVG 1.1//EN"
 "http://www.w3.org/Graphics/SVG/1.1/DTD/svg11.dtd">
<!-- Generated by graphviz version 2.38.0 (20140413.2041)
 -->
<!-- Title: %3 Pages: 1 -->
<svg width="374pt" height="332pt"
 viewBox="0.00 0.00 374.18 332.00" xmlns="http://www.w3.org/2000/svg" xmlns:xlink="http://www.w3.org/1999/xlink">
<g id="graph0" class="graph" transform="scale(1 1) rotate(0) translate(4 328)">
<title>%3</title>
<polygon fill="white" stroke="none" points="-4,4 -4,-328 370.185,-328 370.185,4 -4,4"/>
<!-- x -->
<g id="node1" class="node"><title>x</title>
<ellipse fill="none" stroke="black" cx="200.641" cy="-306" rx="27" ry="18"/>
<text text-anchor="middle" x="200.641" y="-302.3" font-family="Times,serif" font-size="14.00">x</text>
</g>
<!-- StandardScaler -->
<g id="node2" class="node"><title>StandardScaler</title>
<ellipse fill="none" stroke="black" cx="200.641" cy="-234" rx="82.5854" ry="18"/>
<text text-anchor="middle" x="200.641" y="-230.3" font-family="Times,serif" font-size="14.00">StandardScaler</text>
</g>
<!-- x&#45;&gt;StandardScaler -->
<g id="edge1" class="edge"><title>x&#45;&gt;StandardScaler</title>
<path fill="none" stroke="black" d="M200.641,-287.697C200.641,-279.983 200.641,-270.712 200.641,-262.112"/>
<polygon fill="black" stroke="black" points="204.141,-262.104 200.641,-252.104 197.141,-262.104 204.141,-262.104"/>
</g>
<!-- PolynomialExtender -->
<g id="node3" class="node"><title>PolynomialExtender</title>
<ellipse fill="none" stroke="black" cx="104.641" cy="-162" rx="104.782" ry="18"/>
<text text-anchor="middle" x="104.641" y="-158.3" font-family="Times,serif" font-size="14.00">PolynomialExtender</text>
</g>
<!-- StandardScaler&#45;&gt;PolynomialExtender -->
<g id="edge5" class="edge"><title>StandardScaler&#45;&gt;PolynomialExtender</title>
<path fill="none" stroke="black" d="M177.89,-216.411C165.309,-207.237 149.493,-195.704 135.78,-185.705"/>
<polygon fill="black" stroke="black" points="137.703,-182.776 127.561,-179.713 133.579,-188.432 137.703,-182.776"/>
</g>
<!-- RBFSampler -->
<g id="node4" class="node"><title>RBFSampler</title>
<ellipse fill="none" stroke="black" cx="296.641" cy="-162" rx="69.5877" ry="18"/>
<text text-anchor="middle" x="296.641" y="-158.3" font-family="Times,serif" font-size="14.00">RBFSampler</text>
</g>
<!-- StandardScaler&#45;&gt;RBFSampler -->
<g id="edge6" class="edge"><title>StandardScaler&#45;&gt;RBFSampler</title>
<path fill="none" stroke="black" d="M223.391,-216.411C236.156,-207.103 252.251,-195.367 266.101,-185.268"/>
<polygon fill="black" stroke="black" points="268.367,-187.948 274.385,-179.228 264.242,-182.292 268.367,-187.948"/>
</g>
<!-- LinearRegression -->
<g id="node5" class="node"><title>LinearRegression</title>
<ellipse fill="none" stroke="black" cx="200.641" cy="-90" rx="92.8835" ry="18"/>
<text text-anchor="middle" x="200.641" y="-86.3" font-family="Times,serif" font-size="14.00">LinearRegression</text>
</g>
<!-- PolynomialExtender&#45;&gt;LinearRegression -->
<g id="edge3" class="edge"><title>PolynomialExtender&#45;&gt;LinearRegression</title>
<path fill="none" stroke="black" d="M127.391,-144.411C140.064,-135.17 156.02,-123.536 169.802,-113.487"/>
<polygon fill="black" stroke="black" points="172.035,-116.19 178.053,-107.47 167.911,-110.534 172.035,-116.19"/>
</g>
<!-- RBFSampler&#45;&gt;LinearRegression -->
<g id="edge4" class="edge"><title>RBFSampler&#45;&gt;LinearRegression</title>
<path fill="none" stroke="black" d="M274.375,-144.765C261.715,-135.533 245.664,-123.83 231.773,-113.701"/>
<polygon fill="black" stroke="black" points="233.594,-110.697 223.452,-107.633 229.47,-116.353 233.594,-110.697"/>
</g>
<!-- y -->
<g id="node6" class="node"><title>y</title>
<ellipse fill="none" stroke="black" cx="200.641" cy="-18" rx="27" ry="18"/>
<text text-anchor="middle" x="200.641" y="-14.3" font-family="Times,serif" font-size="14.00">y</text>
</g>
<!-- LinearRegression&#45;&gt;y -->
<g id="edge2" class="edge"><title>LinearRegression&#45;&gt;y</title>
<path fill="none" stroke="black" d="M200.641,-71.6966C200.641,-63.9827 200.641,-54.7125 200.641,-46.1124"/>
<polygon fill="black" stroke="black" points="204.141,-46.1043 200.641,-36.1043 197.141,-46.1044 204.141,-46.1043"/>
</g>
</g>
</svg>
