<?xml version="1.0" encoding="UTF-8" standalone="no"?>
<!DOCTYPE svg PUBLIC "-//W3C//DTD SVG 1.1//EN"
 "http://www.w3.org/Graphics/SVG/1.1/DTD/svg11.dtd">
<!-- Generated by graphviz version 2.38.0 (20140413.2041)
 -->
<!-- Title: %3 Pages: 1 -->
<svg width="217pt" height="332pt"
 viewBox="0.00 0.00 217.28 332.00" xmlns="http://www.w3.org/2000/svg" xmlns:xlink="http://www.w3.org/1999/xlink">
<g id="graph0" class="graph" transform="scale(1 1) rotate(0) translate(4 328)">
<title>%3</title>
<polygon fill="white" stroke="none" points="-4,4 -4,-328 213.281,-328 213.281,4 -4,4"/>
<!-- x -->
<g id="node1" class="node"><title>x</title>
<ellipse fill="none" stroke="black" cx="104.641" cy="-306" rx="27" ry="18"/>
<text text-anchor="middle" x="104.641" y="-302.3" font-family="Times,serif" font-size="14.00">x</text>
</g>
<!-- StandardScaler -->
<g id="node2" class="node"><title>StandardScaler</title>
<ellipse fill="none" stroke="black" cx="104.641" cy="-234" rx="82.5854" ry="18"/>
<text text-anchor="middle" x="104.641" y="-230.3" font-family="Times,serif" font-size="14.00">StandardScaler</text>
</g>
<!-- x&#45;&gt;StandardScaler -->
<g id="edge1" class="edge"><title>x&#45;&gt;StandardScaler</title>
<path fill="none" stroke="black" d="M104.641,-287.697C104.641,-279.983 104.641,-270.712 104.641,-262.112"/>
<polygon fill="black" stroke="black" points="108.141,-262.104 104.641,-252.104 101.141,-262.104 108.141,-262.104"/>
</g>
<!-- PolynomialExtender -->
<g id="node3" class="node"><title>PolynomialExtender</title>
<ellipse fill="none" stroke="black" cx="104.641" cy="-162" rx="104.782" ry="18"/>
<text text-anchor="middle" x="104.641" y="-158.3" font-family="Times,serif" font-size="14.00">PolynomialExtender</text>
</g>
<!-- StandardScaler&#45;&gt;PolynomialExtender -->
<g id="edge4" class="edge"><title>StandardScaler&#45;&gt;PolynomialExtender</title>
<path fill="none" stroke="black" d="M104.641,-215.697C104.641,-207.983 104.641,-198.712 104.641,-190.112"/>
<polygon fill="black" stroke="black" points="108.141,-190.104 104.641,-180.104 101.141,-190.104 108.141,-190.104"/>
</g>
<!-- LinearRegression -->
<g id="node4" class="node"><title>LinearRegression</title>
<ellipse fill="none" stroke="black" cx="104.641" cy="-90" rx="92.8835" ry="18"/>
<text text-anchor="middle" x="104.641" y="-86.3" font-family="Times,serif" font-size="14.00">LinearRegression</text>
</g>
<!-- PolynomialExtender&#45;&gt;LinearRegression -->
<g id="edge3" class="edge"><title>PolynomialExtender&#45;&gt;LinearRegression</title>
<path fill="none" stroke="black" d="M104.641,-143.697C104.641,-135.983 104.641,-126.712 104.641,-118.112"/>
<polygon fill="black" stroke="black" points="108.141,-118.104 104.641,-108.104 101.141,-118.104 108.141,-118.104"/>
</g>
<!-- y -->
<g id="node5" class="node"><title>y</title>
<ellipse fill="none" stroke="black" cx="104.641" cy="-18" rx="27" ry="18"/>
<text text-anchor="middle" x="104.641" y="-14.3" font-family="Times,serif" font-size="14.00">y</text>
</g>
<!-- LinearRegression&#45;&gt;y -->
<g id="edge2" class="edge"><title>LinearRegression&#45;&gt;y</title>
<path fill="none" stroke="black" d="M104.641,-71.6966C104.641,-63.9827 104.641,-54.7125 104.641,-46.1124"/>
<polygon fill="black" stroke="black" points="108.141,-46.1043 104.641,-36.1043 101.141,-46.1044 108.141,-46.1043"/>
</g>
</g>
</svg>
