<?xml version="1.0" encoding="UTF-8" standalone="no"?>
<!DOCTYPE svg PUBLIC "-//W3C//DTD SVG 1.1//EN"
 "http://www.w3.org/Graphics/SVG/1.1/DTD/svg11.dtd">
<!-- Generated by graphviz version 2.38.0 (20140413.2041)
 -->
<!-- Title: %3 Pages: 1 -->
<svg width="1182pt" height="404pt"
 viewBox="0.00 0.00 1181.76 404.00" xmlns="http://www.w3.org/2000/svg" xmlns:xlink="http://www.w3.org/1999/xlink">
<g id="graph0" class="graph" transform="scale(1 1) rotate(0) translate(4 400)">
<title>%3</title>
<polygon fill="white" stroke="none" points="-4,4 -4,-400 1177.76,-400 1177.76,4 -4,4"/>
<!-- x -->
<g id="node1" class="node"><title>x</title>
<ellipse fill="none" stroke="black" cx="706.677" cy="-378" rx="27" ry="18"/>
<text text-anchor="middle" x="706.677" y="-374.3" font-family="Times,serif" font-size="14.00">x</text>
</g>
<!-- add_time_features -->
<g id="node2" class="node"><title>add_time_features</title>
<ellipse fill="none" stroke="black" cx="706.677" cy="-306" rx="96.6831" ry="18"/>
<text text-anchor="middle" x="706.677" y="-302.3" font-family="Times,serif" font-size="14.00">add_time_features</text>
</g>
<!-- x&#45;&gt;add_time_features -->
<g id="edge1" class="edge"><title>x&#45;&gt;add_time_features</title>
<path fill="none" stroke="black" d="M706.677,-359.697C706.677,-351.983 706.677,-342.712 706.677,-334.112"/>
<polygon fill="black" stroke="black" points="710.177,-334.104 706.677,-324.104 703.177,-334.104 710.177,-334.104"/>
</g>
<!-- [&#39;clouds&#39;, &#39;humidity&#39;, &#39;pressure&#39;, &#39;temperature&#39;, &#39;wind&#39;] -->
<g id="node3" class="node"><title>[&#39;clouds&#39;, &#39;humidity&#39;, &#39;pressure&#39;, &#39;temperature&#39;, &#39;wind&#39;]</title>
<ellipse fill="none" stroke="black" cx="258.677" cy="-234" rx="258.854" ry="18"/>
<text text-anchor="middle" x="258.677" y="-230.3" font-family="Times,serif" font-size="14.00">[&#39;clouds&#39;, &#39;humidity&#39;, &#39;pressure&#39;, &#39;temperature&#39;, &#39;wind&#39;]</text>
</g>
<!-- add_time_features&#45;&gt;[&#39;clouds&#39;, &#39;humidity&#39;, &#39;pressure&#39;, &#39;temperature&#39;, &#39;wind&#39;] -->
<g id="edge2" class="edge"><title>add_time_features&#45;&gt;[&#39;clouds&#39;, &#39;humidity&#39;, &#39;pressure&#39;, &#39;temperature&#39;, &#39;wind&#39;]</title>
<path fill="none" stroke="black" d="M635.195,-293.831C563.385,-282.611 451.751,-265.168 368.659,-252.185"/>
<polygon fill="black" stroke="black" points="369.092,-248.71 358.672,-250.624 368.012,-255.626 369.092,-248.71"/>
</g>
<!-- target_mean_by_station_and_hour -->
<g id="node4" class="node"><title>target_mean_by_station_and_hour</title>
<ellipse fill="none" stroke="black" cx="706.677" cy="-234" rx="170.87" ry="18"/>
<text text-anchor="middle" x="706.677" y="-230.3" font-family="Times,serif" font-size="14.00">target_mean_by_station_and_hour</text>
</g>
<!-- add_time_features&#45;&gt;target_mean_by_station_and_hour -->
<g id="edge3" class="edge"><title>add_time_features&#45;&gt;target_mean_by_station_and_hour</title>
<path fill="none" stroke="black" d="M706.677,-287.697C706.677,-279.983 706.677,-270.712 706.677,-262.112"/>
<polygon fill="black" stroke="black" points="710.177,-262.104 706.677,-252.104 703.177,-262.104 710.177,-262.104"/>
</g>
<!-- target_ewm_0.5_by_station -->
<g id="node5" class="node"><title>target_ewm_0.5_by_station</title>
<ellipse fill="none" stroke="black" cx="1034.68" cy="-234" rx="139.175" ry="18"/>
<text text-anchor="middle" x="1034.68" y="-230.3" font-family="Times,serif" font-size="14.00">target_ewm_0.5_by_station</text>
</g>
<!-- add_time_features&#45;&gt;target_ewm_0.5_by_station -->
<g id="edge4" class="edge"><title>add_time_features&#45;&gt;target_ewm_0.5_by_station</title>
<path fill="none" stroke="black" d="M767.603,-291.998C820.755,-280.654 898.2,-264.126 956.023,-251.786"/>
<polygon fill="black" stroke="black" points="956.803,-255.198 965.853,-249.688 955.342,-248.352 956.803,-255.198"/>
</g>
<!-- StandardScaler -->
<g id="node6" class="node"><title>StandardScaler</title>
<ellipse fill="none" stroke="black" cx="706.677" cy="-162" rx="82.5854" ry="18"/>
<text text-anchor="middle" x="706.677" y="-158.3" font-family="Times,serif" font-size="14.00">StandardScaler</text>
</g>
<!-- [&#39;clouds&#39;, &#39;humidity&#39;, &#39;pressure&#39;, &#39;temperature&#39;, &#39;wind&#39;]&#45;&gt;StandardScaler -->
<g id="edge6" class="edge"><title>[&#39;clouds&#39;, &#39;humidity&#39;, &#39;pressure&#39;, &#39;temperature&#39;, &#39;wind&#39;]&#45;&gt;StandardScaler</title>
<path fill="none" stroke="black" d="M358.659,-217.378C441.169,-204.486 556.46,-186.471 631.342,-174.771"/>
<polygon fill="black" stroke="black" points="632.292,-178.165 641.632,-173.163 631.212,-171.249 632.292,-178.165"/>
</g>
<!-- target_mean_by_station_and_hour&#45;&gt;StandardScaler -->
<g id="edge7" class="edge"><title>target_mean_by_station_and_hour&#45;&gt;StandardScaler</title>
<path fill="none" stroke="black" d="M706.677,-215.697C706.677,-207.983 706.677,-198.712 706.677,-190.112"/>
<polygon fill="black" stroke="black" points="710.177,-190.104 706.677,-180.104 703.177,-190.104 710.177,-190.104"/>
</g>
<!-- target_ewm_0.5_by_station&#45;&gt;StandardScaler -->
<g id="edge8" class="edge"><title>target_ewm_0.5_by_station&#45;&gt;StandardScaler</title>
<path fill="none" stroke="black" d="M965.917,-218.326C909.21,-206.223 829.253,-189.159 773.175,-177.192"/>
<polygon fill="black" stroke="black" points="773.853,-173.758 763.342,-175.093 772.392,-180.603 773.853,-173.758"/>
</g>
<!-- LinearRegression -->
<g id="node7" class="node"><title>LinearRegression</title>
<ellipse fill="none" stroke="black" cx="706.677" cy="-90" rx="92.8835" ry="18"/>
<text text-anchor="middle" x="706.677" y="-86.3" font-family="Times,serif" font-size="14.00">LinearRegression</text>
</g>
<!-- StandardScaler&#45;&gt;LinearRegression -->
<g id="edge9" class="edge"><title>StandardScaler&#45;&gt;LinearRegression</title>
<path fill="none" stroke="black" d="M706.677,-143.697C706.677,-135.983 706.677,-126.712 706.677,-118.112"/>
<polygon fill="black" stroke="black" points="710.177,-118.104 706.677,-108.104 703.177,-118.104 710.177,-118.104"/>
</g>
<!-- y -->
<g id="node8" class="node"><title>y</title>
<ellipse fill="none" stroke="black" cx="706.677" cy="-18" rx="27" ry="18"/>
<text text-anchor="middle" x="706.677" y="-14.3" font-family="Times,serif" font-size="14.00">y</text>
</g>
<!-- LinearRegression&#45;&gt;y -->
<g id="edge5" class="edge"><title>LinearRegression&#45;&gt;y</title>
<path fill="none" stroke="black" d="M706.677,-71.6966C706.677,-63.9827 706.677,-54.7125 706.677,-46.1124"/>
<polygon fill="black" stroke="black" points="710.177,-46.1043 706.677,-36.1043 703.177,-46.1044 710.177,-46.1043"/>
</g>
</g>
</svg>
