<?xml version="1.0" encoding="UTF-8" standalone="no"?>
<!DOCTYPE svg PUBLIC "-//W3C//DTD SVG 1.1//EN"
 "http://www.w3.org/Graphics/SVG/1.1/DTD/svg11.dtd">
<!-- Generated by graphviz version 2.38.0 (20140413.2041)
 -->
<!-- Title: %3 Pages: 1 -->
<svg width="886pt" height="404pt"
 viewBox="0.00 0.00 885.61 404.00" xmlns="http://www.w3.org/2000/svg" xmlns:xlink="http://www.w3.org/1999/xlink">
<g id="graph0" class="graph" transform="scale(1 1) rotate(0) translate(4 400)">
<title>%3</title>
<polygon fill="white" stroke="none" points="-4,4 -4,-400 881.612,-400 881.612,4 -4,4"/>
<!-- x -->
<g id="node1" class="node"><title>x</title>
<ellipse fill="none" stroke="black" cx="482.677" cy="-378" rx="27" ry="18"/>
<text text-anchor="middle" x="482.677" y="-374.3" font-family="Times,serif" font-size="14.00">x</text>
</g>
<!-- [&#39;clouds&#39;, &#39;humidity&#39;, &#39;pressure&#39;, &#39;temperature&#39;, &#39;wind&#39;] -->
<g id="node2" class="node"><title>[&#39;clouds&#39;, &#39;humidity&#39;, &#39;pressure&#39;, &#39;temperature&#39;, &#39;wind&#39;]</title>
<ellipse fill="none" stroke="black" cx="258.677" cy="-234" rx="258.854" ry="18"/>
<text text-anchor="middle" x="258.677" y="-230.3" font-family="Times,serif" font-size="14.00">[&#39;clouds&#39;, &#39;humidity&#39;, &#39;pressure&#39;, &#39;temperature&#39;, &#39;wind&#39;]</text>
</g>
<!-- x&#45;&gt;[&#39;clouds&#39;, &#39;humidity&#39;, &#39;pressure&#39;, &#39;temperature&#39;, &#39;wind&#39;] -->
<g id="edge1" class="edge"><title>x&#45;&gt;[&#39;clouds&#39;, &#39;humidity&#39;, &#39;pressure&#39;, &#39;temperature&#39;, &#39;wind&#39;]</title>
<path fill="none" stroke="black" d="M463.579,-364.893C426.03,-341.09 342.081,-287.872 294.103,-257.457"/>
<polygon fill="black" stroke="black" points="295.902,-254.454 285.582,-252.056 292.154,-260.366 295.902,-254.454"/>
</g>
<!-- get_hour -->
<g id="node3" class="node"><title>get_hour</title>
<ellipse fill="none" stroke="black" cx="614.677" cy="-306" rx="51.9908" ry="18"/>
<text text-anchor="middle" x="614.677" y="-302.3" font-family="Times,serif" font-size="14.00">get_hour</text>
</g>
<!-- x&#45;&gt;get_hour -->
<g id="edge3" class="edge"><title>x&#45;&gt;get_hour</title>
<path fill="none" stroke="black" d="M503.302,-366.062C523.362,-355.424 554.262,-339.038 578.43,-326.222"/>
<polygon fill="black" stroke="black" points="580.132,-329.281 587.327,-321.504 576.852,-323.097 580.132,-329.281"/>
</g>
<!-- StandardScaler -->
<g id="node5" class="node"><title>StandardScaler</title>
<ellipse fill="none" stroke="black" cx="482.677" cy="-162" rx="82.5854" ry="18"/>
<text text-anchor="middle" x="482.677" y="-158.3" font-family="Times,serif" font-size="14.00">StandardScaler</text>
</g>
<!-- [&#39;clouds&#39;, &#39;humidity&#39;, &#39;pressure&#39;, &#39;temperature&#39;, &#39;wind&#39;]&#45;&gt;StandardScaler -->
<g id="edge6" class="edge"><title>[&#39;clouds&#39;, &#39;humidity&#39;, &#39;pressure&#39;, &#39;temperature&#39;, &#39;wind&#39;]&#45;&gt;StandardScaler</title>
<path fill="none" stroke="black" d="M312.046,-216.322C346.939,-205.418 392.407,-191.209 427.632,-180.202"/>
<polygon fill="black" stroke="black" points="428.777,-183.511 437.278,-177.187 426.689,-176.829 428.777,-183.511"/>
</g>
<!-- target_mean_by_station_and_hour -->
<g id="node4" class="node"><title>target_mean_by_station_and_hour</title>
<ellipse fill="none" stroke="black" cx="706.677" cy="-234" rx="170.87" ry="18"/>
<text text-anchor="middle" x="706.677" y="-230.3" font-family="Times,serif" font-size="14.00">target_mean_by_station_and_hour</text>
</g>
<!-- get_hour&#45;&gt;target_mean_by_station_and_hour -->
<g id="edge2" class="edge"><title>get_hour&#45;&gt;target_mean_by_station_and_hour</title>
<path fill="none" stroke="black" d="M635.553,-289.116C647.583,-279.963 662.919,-268.294 676.268,-258.137"/>
<polygon fill="black" stroke="black" points="678.437,-260.885 684.276,-252.044 674.198,-255.314 678.437,-260.885"/>
</g>
<!-- target_mean_by_station_and_hour&#45;&gt;StandardScaler -->
<g id="edge7" class="edge"><title>target_mean_by_station_and_hour&#45;&gt;StandardScaler</title>
<path fill="none" stroke="black" d="M654.724,-216.765C619.638,-205.8 573.389,-191.348 537.68,-180.188"/>
<polygon fill="black" stroke="black" points="538.494,-176.776 527.906,-177.134 536.406,-183.457 538.494,-176.776"/>
</g>
<!-- LinearRegression -->
<g id="node6" class="node"><title>LinearRegression</title>
<ellipse fill="none" stroke="black" cx="482.677" cy="-90" rx="92.8835" ry="18"/>
<text text-anchor="middle" x="482.677" y="-86.3" font-family="Times,serif" font-size="14.00">LinearRegression</text>
</g>
<!-- StandardScaler&#45;&gt;LinearRegression -->
<g id="edge5" class="edge"><title>StandardScaler&#45;&gt;LinearRegression</title>
<path fill="none" stroke="black" d="M482.677,-143.697C482.677,-135.983 482.677,-126.712 482.677,-118.112"/>
<polygon fill="black" stroke="black" points="486.177,-118.104 482.677,-108.104 479.177,-118.104 486.177,-118.104"/>
</g>
<!-- y -->
<g id="node7" class="node"><title>y</title>
<ellipse fill="none" stroke="black" cx="482.677" cy="-18" rx="27" ry="18"/>
<text text-anchor="middle" x="482.677" y="-14.3" font-family="Times,serif" font-size="14.00">y</text>
</g>
<!-- LinearRegression&#45;&gt;y -->
<g id="edge4" class="edge"><title>LinearRegression&#45;&gt;y</title>
<path fill="none" stroke="black" d="M482.677,-71.6966C482.677,-63.9827 482.677,-54.7125 482.677,-46.1124"/>
<polygon fill="black" stroke="black" points="486.177,-46.1043 482.677,-36.1043 479.177,-46.1044 486.177,-46.1043"/>
</g>
</g>
</svg>
