<?xml version="1.0" encoding="UTF-8" standalone="no"?>
<!DOCTYPE svg PUBLIC "-//W3C//DTD SVG 1.1//EN"
 "http://www.w3.org/Graphics/SVG/1.1/DTD/svg11.dtd">
<!-- Generated by graphviz version 2.38.0 (20140413.2041)
 -->
<!-- Title: %3 Pages: 1 -->
<svg width="1290pt" height="404pt"
 viewBox="0.00 0.00 1289.73 404.00" xmlns="http://www.w3.org/2000/svg" xmlns:xlink="http://www.w3.org/1999/xlink">
<g id="graph0" class="graph" transform="scale(1 1) rotate(0) translate(4 400)">
<title>%3</title>
<polygon fill="white" stroke="none" points="-4,4 -4,-400 1285.73,-400 1285.73,4 -4,4"/>
<!-- x -->
<g id="node1" class="node"><title>x</title>
<ellipse fill="none" stroke="black" cx="557.892" cy="-378" rx="27" ry="18"/>
<text text-anchor="middle" x="557.892" y="-374.3" font-family="Times,serif" font-size="14.00">x</text>
</g>
<!-- get_date_features -->
<g id="node2" class="node"><title>get_date_features</title>
<ellipse fill="none" stroke="black" cx="94.8916" cy="-306" rx="94.7833" ry="18"/>
<text text-anchor="middle" x="94.8916" y="-302.3" font-family="Times,serif" font-size="14.00">get_date_features</text>
</g>
<!-- x&#45;&gt;get_date_features -->
<g id="edge1" class="edge"><title>x&#45;&gt;get_date_features</title>
<path fill="none" stroke="black" d="M531.745,-373.281C472.48,-364.821 323.398,-343.365 198.892,-324 190.771,-322.737 182.297,-321.394 173.846,-320.037"/>
<polygon fill="black" stroke="black" points="174.386,-316.579 163.956,-318.443 173.272,-323.49 174.386,-316.579"/>
</g>
<!-- target_rollingmean_7_by_store_id -->
<g id="node3" class="node"><title>target_rollingmean_7_by_store_id</title>
<ellipse fill="none" stroke="black" cx="376.892" cy="-306" rx="168.97" ry="18"/>
<text text-anchor="middle" x="376.892" y="-302.3" font-family="Times,serif" font-size="14.00">target_rollingmean_7_by_store_id</text>
</g>
<!-- x&#45;&gt;target_rollingmean_7_by_store_id -->
<g id="edge2" class="edge"><title>x&#45;&gt;target_rollingmean_7_by_store_id</title>
<path fill="none" stroke="black" d="M534.968,-368.134C508.535,-357.912 464.232,-340.778 429.242,-327.246"/>
<polygon fill="black" stroke="black" points="430.232,-323.876 419.643,-323.534 427.707,-330.405 430.232,-323.876"/>
</g>
<!-- target_rollingmean_14_by_store_id -->
<g id="node4" class="node"><title>target_rollingmean_14_by_store_id</title>
<ellipse fill="none" stroke="black" cx="738.892" cy="-306" rx="174.669" ry="18"/>
<text text-anchor="middle" x="738.892" y="-302.3" font-family="Times,serif" font-size="14.00">target_rollingmean_14_by_store_id</text>
</g>
<!-- x&#45;&gt;target_rollingmean_14_by_store_id -->
<g id="edge3" class="edge"><title>x&#45;&gt;target_rollingmean_14_by_store_id</title>
<path fill="none" stroke="black" d="M580.815,-368.134C607.249,-357.912 651.551,-340.778 686.541,-327.246"/>
<polygon fill="black" stroke="black" points="688.076,-330.405 696.14,-323.534 685.551,-323.876 688.076,-330.405"/>
</g>
<!-- target_rollingmean_21_by_store_id -->
<g id="node5" class="node"><title>target_rollingmean_21_by_store_id</title>
<ellipse fill="none" stroke="black" cx="1106.89" cy="-306" rx="174.669" ry="18"/>
<text text-anchor="middle" x="1106.89" y="-302.3" font-family="Times,serif" font-size="14.00">target_rollingmean_21_by_store_id</text>
</g>
<!-- x&#45;&gt;target_rollingmean_21_by_store_id -->
<g id="edge4" class="edge"><title>x&#45;&gt;target_rollingmean_21_by_store_id</title>
<path fill="none" stroke="black" d="M584.371,-373.624C656.703,-364.401 860.935,-338.361 991.604,-321.7"/>
<polygon fill="black" stroke="black" points="992.186,-325.154 1001.66,-320.417 991.301,-318.21 992.186,-325.154"/>
</g>
<!-- ~[&#39;area_name&#39;, &#39;date&#39;, &#39;genre_name&#39;, &#39;latitude&#39;, &#39;longitude&#39;, &#39;store_id&#39;] -->
<g id="node6" class="node"><title>~[&#39;area_name&#39;, &#39;date&#39;, &#39;genre_name&#39;, &#39;latitude&#39;, &#39;longitude&#39;, &#39;store_id&#39;]</title>
<ellipse fill="none" stroke="black" cx="557.892" cy="-234" rx="329.542" ry="18"/>
<text text-anchor="middle" x="557.892" y="-230.3" font-family="Times,serif" font-size="14.00">~[&#39;area_name&#39;, &#39;date&#39;, &#39;genre_name&#39;, &#39;latitude&#39;, &#39;longitude&#39;, &#39;store_id&#39;]</text>
</g>
<!-- get_date_features&#45;&gt;~[&#39;area_name&#39;, &#39;date&#39;, &#39;genre_name&#39;, &#39;latitude&#39;, &#39;longitude&#39;, &#39;store_id&#39;] -->
<g id="edge5" class="edge"><title>get_date_features&#45;&gt;~[&#39;area_name&#39;, &#39;date&#39;, &#39;genre_name&#39;, &#39;latitude&#39;, &#39;longitude&#39;, &#39;store_id&#39;]</title>
<path fill="none" stroke="black" d="M163.956,-293.557C175.612,-291.67 187.593,-289.757 198.892,-288 277.956,-275.703 366.93,-262.562 436.521,-252.442"/>
<polygon fill="black" stroke="black" points="437.252,-255.873 446.644,-250.971 436.245,-248.946 437.252,-255.873"/>
</g>
<!-- target_rollingmean_7_by_store_id&#45;&gt;~[&#39;area_name&#39;, &#39;date&#39;, &#39;genre_name&#39;, &#39;latitude&#39;, &#39;longitude&#39;, &#39;store_id&#39;] -->
<g id="edge6" class="edge"><title>target_rollingmean_7_by_store_id&#45;&gt;~[&#39;area_name&#39;, &#39;date&#39;, &#39;genre_name&#39;, &#39;latitude&#39;, &#39;longitude&#39;, &#39;store_id&#39;]</title>
<path fill="none" stroke="black" d="M419.786,-288.411C445.111,-278.617 477.388,-266.134 504.369,-255.699"/>
<polygon fill="black" stroke="black" points="505.983,-258.828 514.048,-251.956 503.458,-252.299 505.983,-258.828"/>
</g>
<!-- target_rollingmean_14_by_store_id&#45;&gt;~[&#39;area_name&#39;, &#39;date&#39;, &#39;genre_name&#39;, &#39;latitude&#39;, &#39;longitude&#39;, &#39;store_id&#39;] -->
<g id="edge7" class="edge"><title>target_rollingmean_14_by_store_id&#45;&gt;~[&#39;area_name&#39;, &#39;date&#39;, &#39;genre_name&#39;, &#39;latitude&#39;, &#39;longitude&#39;, &#39;store_id&#39;]</title>
<path fill="none" stroke="black" d="M695.997,-288.411C670.672,-278.617 638.395,-266.134 611.414,-255.699"/>
<polygon fill="black" stroke="black" points="612.325,-252.299 601.735,-251.956 609.8,-258.828 612.325,-252.299"/>
</g>
<!-- target_rollingmean_21_by_store_id&#45;&gt;~[&#39;area_name&#39;, &#39;date&#39;, &#39;genre_name&#39;, &#39;latitude&#39;, &#39;longitude&#39;, &#39;store_id&#39;] -->
<g id="edge8" class="edge"><title>target_rollingmean_21_by_store_id&#45;&gt;~[&#39;area_name&#39;, &#39;date&#39;, &#39;genre_name&#39;, &#39;latitude&#39;, &#39;longitude&#39;, &#39;store_id&#39;]</title>
<path fill="none" stroke="black" d="M1001.69,-291.586C913.43,-280.333 786.865,-264.195 691.463,-252.031"/>
<polygon fill="black" stroke="black" points="691.816,-248.548 681.454,-250.755 690.931,-255.492 691.816,-248.548"/>
</g>
<!-- StandardScaler -->
<g id="node7" class="node"><title>StandardScaler</title>
<ellipse fill="none" stroke="black" cx="557.892" cy="-162" rx="82.5854" ry="18"/>
<text text-anchor="middle" x="557.892" y="-158.3" font-family="Times,serif" font-size="14.00">StandardScaler</text>
</g>
<!-- ~[&#39;area_name&#39;, &#39;date&#39;, &#39;genre_name&#39;, &#39;latitude&#39;, &#39;longitude&#39;, &#39;store_id&#39;]&#45;&gt;StandardScaler -->
<g id="edge10" class="edge"><title>~[&#39;area_name&#39;, &#39;date&#39;, &#39;genre_name&#39;, &#39;latitude&#39;, &#39;longitude&#39;, &#39;store_id&#39;]&#45;&gt;StandardScaler</title>
<path fill="none" stroke="black" d="M557.892,-215.697C557.892,-207.983 557.892,-198.712 557.892,-190.112"/>
<polygon fill="black" stroke="black" points="561.392,-190.104 557.892,-180.104 554.392,-190.104 561.392,-190.104"/>
</g>
<!-- LinearRegression -->
<g id="node8" class="node"><title>LinearRegression</title>
<ellipse fill="none" stroke="black" cx="557.892" cy="-90" rx="92.8835" ry="18"/>
<text text-anchor="middle" x="557.892" y="-86.3" font-family="Times,serif" font-size="14.00">LinearRegression</text>
</g>
<!-- StandardScaler&#45;&gt;LinearRegression -->
<g id="edge11" class="edge"><title>StandardScaler&#45;&gt;LinearRegression</title>
<path fill="none" stroke="black" d="M557.892,-143.697C557.892,-135.983 557.892,-126.712 557.892,-118.112"/>
<polygon fill="black" stroke="black" points="561.392,-118.104 557.892,-108.104 554.392,-118.104 561.392,-118.104"/>
</g>
<!-- y -->
<g id="node9" class="node"><title>y</title>
<ellipse fill="none" stroke="black" cx="557.892" cy="-18" rx="27" ry="18"/>
<text text-anchor="middle" x="557.892" y="-14.3" font-family="Times,serif" font-size="14.00">y</text>
</g>
<!-- LinearRegression&#45;&gt;y -->
<g id="edge9" class="edge"><title>LinearRegression&#45;&gt;y</title>
<path fill="none" stroke="black" d="M557.892,-71.6966C557.892,-63.9827 557.892,-54.7125 557.892,-46.1124"/>
<polygon fill="black" stroke="black" points="561.392,-46.1043 557.892,-36.1043 554.392,-46.1044 561.392,-46.1043"/>
</g>
</g>
</svg>
